<svg viewBox="0 0 21 21" fill="none" xmlns="http://www.w3.org/2000/svg">
<path d="M4.69141 0H16.3047V21H4.69141V0Z" fill="white"/>
<path d="M4.59375 0C2.05669 0 0 2.05669 0 4.59375V16.4062C0 18.9433 2.05669 21 4.59375 21H4.70687V0H4.59375Z" fill="#FF4B55"/>
<path d="M16.4063 0H16.2931V21H16.4063C18.9433 21 21 18.9433 21 16.4062V4.59375C21 2.05669 18.9433 0 16.4063 0Z" fill="#FF4B55"/>
<path d="M12.6971 12.0898L14.8457 10.862L14.3527 10.6155C14.2144 10.5464 14.1352 10.3971 14.1557 10.2438L14.3161 9.04116L13.4065 9.30579C13.2055 9.36424 12.997 9.2407 12.9518 9.03636L12.8647 8.64261L12.0106 9.64216C11.8923 9.78071 11.6667 9.67485 11.6976 9.49529L12.0623 7.37445L11.5038 7.52719C11.3407 7.57178 11.1685 7.49758 11.0889 7.3484L10.5008 6.24627V6.24467L10.5004 6.24549L10.5 6.24467V6.24627L9.91194 7.3484C9.83232 7.49758 9.66006 7.57182 9.49698 7.52719L8.93855 7.37449L9.30326 9.49533C9.33415 9.67493 9.10856 9.78075 8.99019 9.6422L8.13612 8.64265L8.04901 9.0364C8.00381 9.24074 7.79528 9.36428 7.59435 9.30583L6.68475 9.0412L6.84512 10.2439C6.86554 10.3971 6.78642 10.5464 6.64816 10.6156L6.15515 10.8621L8.30367 12.0898C8.52622 12.217 8.62372 12.4867 8.53398 12.7268L8.35031 13.218L10.1913 13.0609C10.2932 13.0522 10.3799 13.1342 10.3769 13.2364L10.3189 15.2069H10.681L10.6231 13.2363C10.6201 13.1341 10.7068 13.052 10.8087 13.0607L12.6505 13.218L12.4668 12.7267C12.3771 12.4867 12.4746 12.217 12.6971 12.0898Z" fill="#FF4B55"/>
</svg>
