<svg version="1.1" width="100%" height="100%" viewBox="0 0 25 18.901" xmlns="http://www.w3.org/2000/svg">
 <path d="m17.201 18.52 0.7732-0.6341c4.3519-0.1408 6.0257-3.0555 6.0257-3.0555 0.8672 0.4979 0.8666 0.4989 0.8666 0.4989l-6e-4 1e-3 -0.0013 0.0023-0.0031 0.0054-0.0082 0.0139c-0.0064 0.0106-0.0145 0.024-0.0245 0.04-0.0199 0.032-0.0471 0.0743-0.0818 0.1255-0.0695 0.1023-0.1694 0.2406-0.302 0.4031-0.265 0.3244-0.6633 0.7487-1.2132 1.1751-1.1083 0.8594-2.8139 1.7118-5.2253 1.7897l-0.4928 0.016zm3.0575-14.645c-1.7611-0.98533-3.4931-1.5396-5.1334-1.8161-0.2671-0.04504-0.5318-0.08271-0.7939-0.11369-0.1636-0.01855-0.3264-0.03443-0.4883-0.04776-1.0937-0.09004-2.1445-0.06354-3.1059 0.04139-0.1295 0.01414-0.2574 0.02969-0.3835 0.04658-0.1031 0-0.1913 0.01532-0.2906 0.03258-0.0145 0.00251-0.0292 0.00507-0.0442 0.00762-0.06347 0.00556-0.13534 0.01282-0.21513 0.02217-0.78619 0.0921-2.342 0.38652-4.2549 1.2443-0.34299 0.16087-0.62052 0.29947-0.81822 0.40112-0.03425 0.01761-0.06611 0.03411-0.09549 0.04943-0.11243 0.0586-0.18867 0.09984-0.22455 0.11945-0.01559 0.00852-0.02355 0.01296-0.02355 0.01296s0.00646-0.00628 0.01945-0.01831c0.03937-0.03644 0.13868-0.12565 0.29983-0.2529 0.17415-0.13751 0.42051-0.31942 0.7415-0.52717l0.00344-0.00223c0.71935-0.46521 1.8123-1.0594 3.3057-1.5743 0.19492-0.06721 0.39668-0.13307 0.60531-0.19713 0.06717-0.02062 0.13506-0.04105 0.20367-0.06129l-0.19692-0.24122s-2.4649-0.055101-5.1589 1.8361c-0.09502 0.0667-0.19032 0.13582-0.28581 0.20745-0.02954 0.02216-0.0591 0.04456-0.08867 0.0672 0 0-0.02356 0.04359-0.06639 0.12773-0.00244 0.0048-0.00507 0.00997-0.00763 0.01503-0.4465 0.88052-2.7616 5.728-2.7616 11.577l-0.86972 0.4935-0.13028-0.2296v-0.2639c0-3.3766 0.73838-6.4172 1.4694-8.6041 0.36641-1.0962 0.73344-1.9852 1.0107-2.6035 0.13868-0.30937 0.25513-0.55155 0.33812-0.71862 0.0415-0.08355 0.07465-0.14837 0.09806-0.19347l0.02765-0.05276 0.00802-0.01507 0.00251-0.00467 8.6e-4 -0.00161s6.1e-4 -0.00112 0.8204 0.44194l-0.81979-0.44307 0.10181-0.18837 0.17002-0.13017c1.5449-1.1828 3.059-1.7625 4.1962-2.0458 0.56836-0.14158 1.0438-0.20948 1.3845-0.24188 0.17049-0.016214 0.30767-0.023583 0.4064-0.026809 0.04938-0.0016136 0.0892-0.0021924 0.11881-0.0023203l0.0367 7.3671e-5 0.01247 1.5414e-4 0.00475 8.2612e-5 0.00199 3.9756e-5s0.00162 3.463e-5 -0.01177 0.60324l0.01352-0.6032 0.46082 0.010301 0.76342 0.9352c1.1519-0.12662 2.4242-0.14721 3.7478-0.003527l0.7989-0.93199 0.4463-0.0099778 0.0107 0.47599c-0.0105-0.47583-0.0107-0.47599-0.0107-0.47599l0.0018-3.7491e-5 2e-3 -3.9756e-5 0.0047-8.2612e-5 0.0125-1.5414e-4 0.0367-7.3671e-5c0.0296 1.2791e-4 0.0694 7.0673e-4 0.1188 0.0023203 0.0987 0.0032259 0.2359 0.010595 0.4064 0.026809 0.3407 0.032404 0.8162 0.10031 1.3846 0.24188 1.1372 0.28328 2.6513 0.86299 4.1962 2.0458l0.17 0.13017 0.1018 0.18837-0.8797 0.47547c-0.657-0.50299-1.3066-0.88622-1.9169-1.1782-2.024-0.96815-3.6165-0.93255-3.6165-0.93255l-0.2757 0.32163c0.0965 0.03012 0.1914 0.06062 0.2849 0.09146 0.255 0.0841 0.4989 0.17071 0.7319 0.25887 0.9996 0.37815 1.7984 0.78479 2.4056 1.1445 1.0008 0.59284 1.4809 1.0581 1.4809 1.0581zm-13.253 14.011c-4.3519-0.1408-6.006-3.0555-6.006-3.0555-0.86972 0.4935-0.86916 0.4945-0.86916 0.4945l5.95e-4 1e-3 0.00131 0.0023 0.003108 0.0054 0.008175 0.014c0.006324 0.0107 0.014408 0.0241 0.024288 0.0402 0.019754 0.032 0.046721 0.0744 0.081188 0.1257 0.068884 0.1026 0.16804 0.2411 0.29981 0.4038 0.26318 0.325 0.65918 0.7498 1.207 1.1768 1.1043 0.8607 2.8057 1.7133 5.2174 1.7912l0.49834 0.0162 0.31277-0.3884-0.3894-0.3136zm0 0 0.7788 0.6272 0.12458-0.1551c0.07811-0.0975 0.18836-0.2353 0.31719-0.3972 0.25719-0.3231 0.59031-0.7444 0.88983-1.1316l0.07069-0.0915c0.20708 0.0495 0.41991 0.0961 0.63847 0.1392l0.0061 0.0012c1.5734 0.2998 3.433 0.4096 5.467 0.0215 0.1757-0.0306 0.3517-0.0652 0.5281-0.1038l0.0569 0.0736c0.3012 0.3894 0.6308 0.8023 0.8838 1.1162 0.1267 0.1573 0.2349 0.2906 0.3114 0.3846l0.0896 0.1099 0.0327 0.0399 0.7732-0.6341s-0.2813-0.343-0.6372-0.7879c-0.1451-0.1814-0.3027-0.3798-0.4587-0.5788-0.0686-0.0875-0.1369-0.1752-0.2037-0.2616 0.3602-0.1039 0.6893-0.2254 0.989-0.3576 0.1893-0.0835 0.3669-0.1713 0.5332-0.2616 0.0079-0.0042 0.0157-0.0085 0.0236-0.0128 1.4377-0.788 2.0184-1.7601 2.0184-1.7601-0.8074 0.5427-1.5754 0.9246-2.2646 1.186-0.5065 0.2171-1.0026 0.3971-1.491 0.5425-0.4527 0.1348-0.8988 0.24-1.3403 0.3177l-0.024 0.0042c-1.8904 0.3618-3.6233 0.2613-5.1002-0.0201-0.05236-0.0104-0.10441-0.0209-0.15611-0.0317-0.47053-0.0978-0.91264-0.2129-1.3263-0.3376-0.51475-0.1551-0.98549-0.3251-1.4122-0.4951-0.45291-0.1809-0.94521-0.4021-1.4375-0.6835-0.02953-0.0201-0.05907-0.0352-0.08861-0.0502-0.02954-0.0151-0.05907-0.0302-0.08861-0.0503-0.03938-0.0201-0.05908-0.0402-0.07877-0.0603-0.35445-0.201-0.55137-0.3417-0.55137-0.3417s0.12009 0.2043 0.3879 0.5018c0.0145 0.0161 0.02942 0.0325 0.04479 0.0492 0.01796 0.0194 0.03652 0.0392 0.05568 0.0593 0.00762 8e-3 0.01533 0.016 0.02313 0.0241 0.03846 0.0399 0.07924 0.081 0.1224 0.123 0.00591 0.0057 0.01186 0.0115 0.01786 0.0173 0.31957 0.3085 0.7661 0.6674 1.36 0.9949 0.14338 0.0791 0.29586 0.1566 0.4567 0.2308 0.29536 0.1363 0.62065 0.2626 0.97765 0.3716-0.05966 0.0771-0.12073 0.1557-0.1823 0.2346-0.15958 0.2046-0.3226 0.4116-0.47354 0.6022-0.36759 0.4642-0.66352 0.8317-0.66352 0.8317zm14.158-14.775s2.8356 5.2466 2.8356 11.72l0.8672 0.4979 0.1328-0.2312v-0.2667c0-3.3766-0.7384-6.4172-1.4694-8.6041-0.3664-1.0962-0.7334-1.9852-1.0106-2.6035-0.1387-0.30937-0.2552-0.55155-0.3382-0.71862-0.0415-0.08355-0.0746-0.14837-0.098-0.19347l-0.0277-0.05276-8e-3 -0.01507-0.0025-0.00467-9e-4 -0.00161s-6e-4 -0.00113-0.8803 0.47434z" clip-rule="evenodd" fill-rule="evenodd"/>
 <path d="m8.8888 8.208c-1.1224 0-2.0086 1.0051-2.0086 2.2313 0 1.2263 0.90582 2.2314 2.0086 2.2314 1.1224 0 2.0086-1.0051 2.0086-2.2314 0.0197-1.2262-0.8862-2.2313-2.0086-2.2313zm7.1875 0c-1.1224 0-2.0086 1.0051-2.0086 2.2313 0 1.2263 0.9059 2.2314 2.0086 2.2314 1.1224 0 2.0086-1.0051 2.0086-2.2314 0-1.2262-0.8862-2.2313-2.0086-2.2313z"/>
 <path d="m12.254 13.389c0-1e-4 1e-4 0.0011 1e-4 0.0037zm0.1924 0.8587c-0.1826 0.2179-0.3892 0.4053-0.6209 0.5828-0.2226 0.1705-0.4646 0.1977-0.6858 0.1362-0.1944-0.0541-0.3613-0.1738-0.48-0.2652-0.4382-0.3374-0.5001-0.867-0.5001-1.2374 0-0.1933 0.1567-0.35 0.35-0.35s0.35 0.1567 0.35 0.35c0 0.3304 0.0646 0.5576 0.2271 0.6828 0.1137 0.0874 0.1878 0.1307 0.2407 0.1454 0.0207 0.0058 0.0298 0.0045 0.0328 4e-3h1e-4c0.0023-4e-4 0.0149-0.0026 0.0395-0.0215 0.3249-0.2489 0.5658-0.4988 0.7579-0.8317 8e-4 -0.0026 0.0059-0.0153 0.0168-0.045 0.0014-0.0037 0.0028-0.0077 0.0044-0.0119 0.0126-0.0344 0.0298-0.0815 0.0466-0.1216 0.0092-0.022 0.0224-0.052 0.0387-0.0811 8e-3 -0.0142 0.0212-0.0365 0.0398-0.0602 0.0127-0.0161 0.0565-0.0711 0.1339-0.1077 0.0442-0.0209 0.1103-0.0408 0.1901-0.0324 0.0829 0.0088 0.1502 0.045 0.1981 0.0873 0.0808 0.0714 0.1049 0.1576 0.111 0.1798 0.0164 0.0595 0.0171 0.1183 0.0171 0.1484 0 0.2604 0.0093 0.3688 0.0917 0.4862 0.0877 0.1251 0.1459 0.1677 0.1804 0.1829 0.0217 0.0094 0.0673 0.0238 0.1804-0.0142 0.328-0.1102 0.5494-0.4073 0.5494-0.7204 0-0.1933 0.1567-0.35 0.35-0.35s0.35 0.1567 0.35 0.35c0 0.6442-0.4434 1.1881-1.0264 1.384-0.2318 0.0778-0.4633 0.0883-0.6837-8e-3 -0.2075-0.0907-0.3563-0.2557-0.4731-0.4222-0.0092-0.0131-0.018-0.0262-0.0265-0.0393z" clip-rule="evenodd" fill-rule="evenodd"/>
</svg>
