<svg width="23" height="16" viewBox="0 0 23 16" xmlns="http://www.w3.org/2000/svg">
<path fill-rule="evenodd" clip-rule="evenodd" d="M12.3589 10.6442C11.8643 11.1044 11.1316 11.1044 10.637 10.6442L10.6359 10.6432L1.05486 1.67488C1.01931 1.77749 1 1.88768 1 2.00238V14C1 14.5523 1.44772 15 2 15H21C21.5523 15 22 14.5523 22 14V2.00021C22 1.88534 21.9806 1.77499 21.945 1.67225L12.3589 10.6442ZM21.182 1.01673L11.6777 9.91209C11.6779 9.91193 11.6775 9.91225 11.6777 9.91209C11.5672 10.0145 11.429 10.0149 11.3185 9.91243C11.3186 9.91255 11.3184 9.91232 11.3185 9.91243L1.81749 1.019C1.87663 1.00809 1.93759 1.00239 1.99988 1.00238L20.9999 1.00021C21.0621 1.00021 21.1229 1.00587 21.182 1.01673ZM21.9889 0.261433C21.6972 0.0951527 21.3596 0.000172558 20.9998 0.000213636L1.99977 0.00238277C1.63997 0.00242384 1.30238 0.097471 1.0107 0.263803C0.716277 0.431697 0.468642 0.672222 0.292185 0.960981C0.10682 1.26431 0 1.62088 0 2.00238V14C0 15.1046 0.895431 16 2 16H21C22.1046 16 23 15.1046 23 14V2.00021C23 1.61856 22.8931 1.26188 22.7076 0.958475C22.5311 0.669749 22.2834 0.42927 21.9889 0.261433Z"/>
</svg>


