<svg version="1.1" width="22" height="22" viewBox="0 0 22 22" xmlns="http://www.w3.org/2000/svg">
 <g clip-path="url(#clip0)">
  <path d="m18.058 13.492h-2.8681v8.5078h-3.4375v-8.5078h-2.8575v-3.3301h2.8575v-2.4507c0-2.842 1.735-4.3889 4.2701-4.3889 1.2142 0 2.2577 0.09047 2.5619 0.13092v2.9704h-1.7481c-1.3794 0-1.6464 0.65544-1.6464 1.6174v2.1209h3.2978zm-1.8681-4.3301h3.4351l-0.6877 5.3301h-2.7474v6.5078h3.8105c0.5523 0 1-0.4477 1-1v-18c0-0.55228-0.4477-1-1-1h-18c-0.55228 0-1 0.44771-1 1v18c0 0.5523 0.44772 1 1 1h8.752v-6.5078h-2.8575v-5.3301h2.8575v-1.4507c0-1.6276 0.5015-3.0028 1.4814-3.9714 0.9768-0.96548 2.3183-1.4175 3.7887-1.4175 1.2517 0 2.3398 0.09258 2.6937 0.13965l0.8682 0.11547v4.8462h-2.7481c-0.4079 0-0.5458 0.07168-0.5766 0.09365-0.0091 0.0144-0.0698 0.12471-0.0698 0.52372zm0.0626-1.6383c-2e-4 -1.7e-4 0.0016-0.00221 0.0062-0.00559-0.0037 0.00407-6e-3 0.00577-0.0062 0.00559zm-4.5001 14.476h-9.752c-1.1046 0-2-0.8954-2-2v-18c0-1.1046 0.89543-2 2-2h18c1.1046 0 2 0.89543 2 2v18c0 1.1046-0.8954 2-2 2h-4.8105z" clip-rule="evenodd" fill="#f2d8f1" fill-rule="evenodd"/>
 </g>
 <defs>
  <clipPath id="clip0">
   <rect width="22" height="22" fill="#fff"/>
  </clipPath>
 </defs>
</svg>
