<svg version="1.1" width="23" height="22.995" viewBox="0 0 23 22.995" xmlns="http://www.w3.org/2000/svg">
 <path d="m2.5 0c-1.3748 0-2.5 1.1252-2.5 2.5v17.979c0 1.3747 1.1252 2.5 2.5 2.5h5.5488c0.82237 0 1.5-0.67748 1.5-1.5v-2.2363l-0.58984 0.10742c-1.3547 0.24716-2.1233 0.07242-2.5664-0.17383-0.4431-0.24625-0.60937-0.57768-0.69922-0.82812l-0.00391-0.0059-0.00195-0.0078c-0.09007-0.22818-0.26352-0.55668-0.49805-0.91016-0.11426-0.17221-0.29512-0.2983-0.43359-0.45703 0.030143 0.02227 0.068409 0.01669 0.097656 0.04102 0.24037 0.19996 0.43068 0.45707 0.51562 0.5918l-0.00586-0.0098c0.58318 0.97134 1.4281 1.3887 2.1777 1.457 0.74966 0.06837 1.3941-0.15727 1.7715-0.32807l0.25195-0.11328 0.03711-0.27539c0.08565-0.6306 0.33406-1.0054 0.55664-1.1973l0.86719-0.74805-1.1387-0.12695c-1.2221-0.13612-2.4138-0.43942-3.2734-1.1582-0.85962-0.71878-1.459-1.8593-1.459-3.9141 0-1.1067 0.38394-1.9848 1.0332-2.6914l0.21484-0.23242-0.11914-0.29297c-0.080041-0.19833-0.3137-1.095 0.060547-2.3047 0.075663 0.00598 0.11906 0.0011 0.23438 0.025391 0.43427 0.091482 1.16 0.3502 2.207 1.0488l0.19141 0.12695 0.2207-0.060547c0.86366-0.24074 1.7874-0.36328 2.7109-0.36328 0.92347 0 1.8472 0.12254 2.7109 0.36328l0.2207 0.060547 0.19141-0.12891c1.0466-0.70506 1.7707-0.96313 2.2031-1.0527 0.1163-0.024098 0.16072-0.01807 0.23633-0.023438 0.37638 1.212 0.14068 2.11 0.06055 2.3086l-0.11719 0.29297 0.21289 0.23242c0.65125 0.70877 1.0352 1.5693 1.0352 2.6914 0 2.0616-0.60407 3.2008-1.4668 3.918-0.86272 0.71721-2.0581 1.0181-3.2812 1.1543l-1.1465 0.12695 0.87891 0.75c0.28005 0.23925 0.5918 0.76184 0.5918 1.707v2.6387c0 0.82091 0.67519 1.4978 1.4961 1.5l4.7578 0.01367c1.3774 0.0037 2.5078-1.1226 2.5078-2.5v-17.994c0-1.3747-1.1252-2.5-2.5-2.5zm0 1h18c0.83439 0 1.5 0.66552 1.5 1.5v17.994c0 0.83598-0.6679 1.5023-1.5039 1.5l-4.7598-0.01367c-0.2815-7.66e-4 -0.49805-0.21852-0.49805-0.5v-2.6387c0-0.73464-0.18939-1.2851-0.44141-1.7461 1.071-0.18461 2.1529-0.48598 3.0391-1.2227 1.1002-0.91464 1.8262-2.4211 1.8262-4.6875 0-1.2476-0.45515-2.2839-1.1426-3.123 0.16685-0.5014 0.43032-1.5871-0.17383-3.084l-0.08789-0.21484-0.2207-0.072266s-0.14498-0.042405-0.3125-0.050781c-0.16752-0.00838-0.3993 0.00352-0.69336 0.064453-0.54178 0.11226-1.3584 0.46896-2.3574 1.1074-0.89557-0.22985-1.827-0.37109-2.7656-0.37109-0.93878 0-1.872 0.14122-2.7676 0.37109-0.9996-0.63343-1.8149-0.9877-2.3555-1.1016-0.29315-0.061754-0.52282-0.075204-0.68945-0.068359-0.16663 0.00684-0.31055 0.046875-0.31055 0.046875l-0.22656 0.070312-0.087891 0.21875c-0.60408 1.4968-0.34262 2.5826-0.17578 3.084-0.68903 0.84229-1.1406 1.8868-1.1406 3.123 0 2.2592 0.72217 3.7631 1.8184 4.6797 0.91958 0.76892 2.05 1.0765 3.1641 1.2559-0.13189 0.22052-0.26893 0.41861-0.34766 0.70898-0.28698 0.1185-0.71126 0.26126-1.1562 0.2207-0.48785-0.04446-0.97115-0.24015-1.4121-0.97461l-0.00391-0.0059-0.00195-0.0039c-0.12842-0.20364-0.36561-0.53107-0.72266-0.82809-0.35663-0.29667-0.85341-0.56939-1.457-0.56055h-0.00195c-0.28358 0.0042-0.50522 0.01501-0.74219 0.1875-0.11878 0.08646-0.23228 0.24593-0.26172 0.41211-0.029437 0.16618 0.011825 0.30644 0.058594 0.4082 0.18708 0.40703 0.47188 0.54036 0.73438 0.67969l-0.00781-0.0039c0.081813 0.04532 0.34526 0.3202 0.54102 0.61523 0.19575 0.29503 0.3644 0.62849 0.40234 0.72461l-0.00586-0.01563c0.13774 0.38396 0.45589 0.97709 1.1543 1.3652 0.59101 0.32846 1.4902 0.43746 2.6426 0.31641v1.1113c0 0.28208-0.21781 0.5-0.5 0.5h-5.5488c-0.83433 0-1.5-0.66574-1.5-1.5v-17.979c0-0.83438 0.66565-1.5 1.5-1.5z" clip-rule="evenodd" dominant-baseline="auto" fill-rule="evenodd" image-rendering="auto" shape-rendering="auto" style="font-feature-settings:normal;font-variant-alternates:normal;font-variant-caps:normal;font-variant-east-asian:normal;font-variant-ligatures:normal;font-variant-numeric:normal;font-variant-position:normal;font-variation-settings:normal;inline-size:0;isolation:auto;mix-blend-mode:normal;shape-margin:0;shape-padding:0;text-decoration-line:none;text-decoration-style:solid;text-indent:0;text-orientation:mixed;text-transform:none;white-space:normal"/>
</svg>
