<svg width="21" height="21" viewBox="0 0 21 21" fill="none" xmlns="http://www.w3.org/2000/svg">
<path d="M16.4062 0H4.59375C2.05669 0 0 2.05669 0 4.59375V16.4062C0 18.9433 2.05669 21 4.59375 21H16.4062C18.9433 21 21 18.9433 21 16.4062V4.59375C21 2.05669 18.9433 0 16.4062 0Z" fill="#FF4B55"/>
<path d="M8.80866 11.5575C8.12331 11.5645 7.35382 11.3451 6.67946 10.6018C6.63294 10.5506 6.63948 10.4698 6.69227 10.4251L6.69249 10.4249C6.74374 10.3814 6.81951 10.3882 6.86471 10.4378C7.89253 11.5665 9.16652 11.3689 9.92759 11.0962C9.64639 11.1087 9.2931 11.0876 9.06584 10.9382C8.11649 10.3142 8.54649 9.65025 7.91595 8.84772C7.28943 8.05035 6.7257 8.06987 5.838 8.20437C4.95919 8.33755 4.6792 7.69294 4.5921 7.33514C4.57649 7.27108 4.48713 7.26701 4.46426 7.32882C3.36892 10.2882 6.66247 13.95 10.0438 11.3171C9.71034 11.4401 9.28056 11.5526 8.80866 11.5575ZM6.34118 10.5531C6.32194 10.606 6.24649 10.6039 6.23016 10.5501L6.10402 10.1345L5.6699 10.1192C5.6137 10.1173 5.59237 10.0449 5.6385 10.0127L5.99482 9.7643L5.87517 9.34673C5.85966 9.29267 5.92191 9.25 5.96677 9.28393L6.31314 9.54605L6.67325 9.30318C6.71988 9.27172 6.7797 9.31775 6.76128 9.37086L6.61903 9.78129L6.96127 10.0487C7.00559 10.0834 6.98029 10.1545 6.9241 10.1534L6.48981 10.1449L6.34118 10.5531Z" fill="white"/>
<path d="M11.2346 9.59125C11.7788 9.17461 12.5262 8.88874 13.5115 9.0791C13.5795 9.09224 13.6227 9.1607 13.6073 9.22823L13.6072 9.2285C13.5923 9.29399 13.5276 9.33402 13.4616 9.32137C11.9622 9.03456 11.0613 9.95675 10.6158 10.6314C10.8334 10.4528 11.1287 10.2579 11.4002 10.2411C12.534 10.1711 12.5881 10.9603 13.574 11.2243C14.5535 11.4866 14.9929 11.1329 15.6227 10.4929C16.246 9.85926 16.8566 10.2072 17.1409 10.4412C17.1918 10.4831 17.2658 10.4328 17.247 10.3696C16.3488 7.34459 11.5171 6.38958 10.3903 10.5243C10.5835 10.226 10.8599 9.87817 11.2346 9.59125ZM13.8114 8.91513C13.7951 8.8613 13.8567 8.81769 13.9021 8.85096L14.2523 9.10791L14.6088 8.85976C14.6549 8.82765 14.7154 8.87274 14.6978 8.92613L14.5616 9.33858L14.9078 9.60093C14.9526 9.63486 14.9284 9.70634 14.8722 9.70612L14.4379 9.70408L14.2953 10.1144C14.2769 10.1675 14.2014 10.1666 14.1843 10.113L14.052 9.6993L13.6177 9.69056C13.5615 9.6894 13.5391 9.61737 13.5847 9.58454L13.9373 9.33089L13.8114 8.91513Z" fill="white"/>
<path d="M9.41978 9.87648C9.15249 9.24539 9.06264 8.45023 9.4934 7.54382C9.5231 7.4813 9.60024 7.45661 9.66172 7.48845L9.66199 7.48862C9.72166 7.51946 9.74426 7.5921 9.7155 7.65286C9.0628 9.03281 9.73029 10.1358 10.2721 10.7359C10.1536 10.4806 10.0387 10.1458 10.0903 9.87884C10.3062 8.76349 11.0838 8.90854 11.586 8.02001C12.085 7.13725 11.8525 6.62334 11.3902 5.85358C10.9327 5.09151 11.4223 4.58739 11.72 4.37069C11.7733 4.33192 11.743 4.24768 11.6772 4.25005C8.5236 4.36316 6.39049 8.80231 10.112 10.9275C9.87139 10.6657 9.60382 10.311 9.41978 9.87648ZM9.4096 7.21242C9.35341 7.21473 9.32663 7.14418 9.37018 7.1086L9.70653 6.83378L9.55543 6.42654C9.53585 6.37381 9.59469 6.32652 9.64198 6.35693L10.0073 6.59194L10.3479 6.3224C10.392 6.28748 10.4551 6.32883 10.4408 6.38321L10.3302 6.80326L10.6918 7.04388C10.7386 7.07506 10.7188 7.14786 10.6627 7.15105L10.229 7.17568L10.1119 7.59397C10.0967 7.64813 10.0214 7.65182 10.001 7.59941L9.84356 7.1946L9.4096 7.21242Z" fill="white"/>
<path d="M11.8768 11.3085C12.4433 11.6943 12.9495 12.314 13.0782 13.3093C13.0871 13.378 13.0357 13.4405 12.9667 13.447L12.9664 13.4471C12.8995 13.4534 12.8412 13.4046 12.8324 13.338C12.6338 11.8244 11.4754 11.2587 10.6949 11.0477C10.9328 11.1981 11.2107 11.4173 11.3118 11.6697C11.7344 12.7242 11.0022 13.0234 11.0612 14.0423C11.1198 15.0547 11.5936 15.3608 12.399 15.7575C13.1963 16.1504 13.0578 16.8394 12.9249 17.1828C12.9011 17.2442 12.9722 17.2987 13.0263 17.261C15.616 15.458 15.0052 10.571 10.7258 10.7999C11.0697 10.8897 11.4868 11.0428 11.8768 11.3085ZM13.3281 13.5425C13.3741 13.5101 13.4348 13.5549 13.4174 13.6084L13.2835 14.0216L13.6311 14.2821C13.6761 14.3158 13.6522 14.3875 13.596 14.3875L13.1617 14.3878L13.0213 14.7988C13.0031 14.8521 12.9276 14.8515 12.9102 14.798L12.7758 14.385L12.3414 14.3786C12.2852 14.3778 12.2623 14.3058 12.3079 14.2727L12.6591 14.0172L12.5311 13.6021C12.5145 13.5484 12.5759 13.5045 12.6213 13.5375L12.9729 13.7926L13.3281 13.5425Z" fill="white"/>
<path d="M10.4601 12.5366C10.265 13.1937 9.82863 13.8644 8.91969 14.2899C8.85701 14.3193 8.78179 14.2892 8.75457 14.2256L8.75446 14.2253C8.72806 14.1636 8.75682 14.0931 8.81758 14.0646C10.1989 13.4148 10.3853 12.1391 10.3489 11.3314C10.278 11.6038 10.1537 11.9352 9.94405 12.1084C9.0681 12.8318 8.5603 12.2253 7.60765 12.5916C6.66111 12.9554 6.51374 13.4999 6.38084 14.3879C6.24925 15.2669 5.55081 15.3446 5.18322 15.3225C5.1174 15.3185 5.08721 15.4028 5.13956 15.4428C7.64504 17.3612 12.1145 15.2922 10.5943 11.2854C10.6135 11.6404 10.5945 12.0842 10.4601 12.5366ZM8.77359 14.5989C8.81846 14.6328 8.79427 14.7043 8.73802 14.7041L8.30368 14.7022L8.16126 15.1126C8.14284 15.1657 8.06734 15.1648 8.05024 15.1112L7.91783 14.6976L7.48355 14.6889C7.42735 14.6878 7.40486 14.6158 7.4505 14.5829L7.80302 14.3292L7.67699 13.9134C7.66066 13.8596 7.72224 13.816 7.76761 13.8493L8.11793 14.1061L8.47436 13.8578C8.52049 13.8257 8.58103 13.8708 8.56338 13.9242L8.4274 14.3367L8.77359 14.5989Z" fill="white"/>
</svg>
