<svg version="1.1" width="23" height="23" viewBox="0 0 23 23" xmlns="http://www.w3.org/2000/svg">
 <path d="m1.5802 1.5921c-0.36313 0.35825-0.58025 0.86799-0.58025 1.4727 0 1.1579 0.80918 2.0642 2.1061 2.0642h0.03073c0.70249 0 1.2379-0.24091 1.5967-0.6009 0.3596-0.36079 0.57023-0.86953 0.57148-1.4581-0.01413-0.61446-0.22873-1.1264-0.5806-1.4825-0.35022-0.35441-0.86899-0.58763-1.5562-0.58763-0.68885 0-1.2254 0.23446-1.5879 0.59212zm-0.70232-0.71187c0.56822-0.5606 1.3658-0.88025 2.2902-0.88025 0.92607 0 1.7104 0.32089 2.2675 0.88474 0.55454 0.56117 0.85148 1.3298 0.86919 2.1696l2.3e-4 0.01054c0 0.83371-0.30106 1.6051-0.86332 2.1692-0.56411 0.56599-1.3628 0.89497-2.305 0.89497h-0.03073c-1.8682 0-3.1061-1.3732-3.1061-3.0642 0-0.85189 0.3103-1.6246 0.87793-2.1846zm13.658 7.6781c-0.594 0.43003-0.99 0.97861-1.29 1.4627l-0.925 1.4929v-3.358h-3.704c0.01905 1.3181 0.0179 4.4545 0.01138 7.4453-0.00386 1.7688-0.00965 3.4941-0.01448 4.777-0.00241 0.6415-0.00458 1.1725-0.00615 1.5431l-3.4e-4 0.0786h3.7136v-7.7896c0-0.4445 0.0272-0.9719 0.189-1.3851 0.3833-0.9948 1.2995-2.1233 2.8858-2.1233 1.0104 0 1.7709 0.4161 2.2535 1.1572 0.4603 0.7069 0.6357 1.6593 0.6357 2.6996v7.4412h3.7155v-8.0115c0-2.1991-0.5608-3.7374-1.4263-4.7196-0.8593-0.97523-2.0704-1.4612-3.5031-1.4612-1.1465 0-1.9496 0.32686-2.5351 0.75078zm-6.4308 13.942c-0.5-0.0023-0.5-0.0023-0.49999-0.0024l0.00253-0.5804c0.00156-0.3705 0.00374-0.9013 0.00615-1.5426 0.00482-1.2827 0.01061-3.0073 0.01447-4.7755 0.00774-3.5471 0.00753-7.2399-0.02267-7.921l-0.02315-0.52215h5.7385v1.1336c0.1853-0.1878 0.3936-0.37113 0.6286-0.54124 0.7573-0.54829 1.7659-0.94077 3.1215-0.94077 1.6701 0 3.1737 0.57477 4.2534 1.8001 1.0735 1.2184 1.676 3.0204 1.676 5.3808v9.0115h-5.7155v-8.4412c0-0.9554-0.166-1.6814-0.4737-2.154-0.2855-0.4383-0.7196-0.7028-1.4155-0.7028-1.0184 0-1.6539 0.7065-1.953 1.4839l-0.0014 0.0034c-0.0868 0.2209-0.1204 0.5791-0.1204 1.0211v8.7896h-5.7181l0.00231-0.5024zm-7.826-15.344h5.7161v15.844h-5.7161zm1 1v13.844h3.7161v-13.844z" clip-rule="evenodd" fill-rule="evenodd"/>
</svg>
