<svg width="279.14mm" height="33.101mm" version="1.1" viewBox="0 0 279.14 33.101" xmlns="http://www.w3.org/2000/svg" xmlns:xlink="http://www.w3.org/1999/xlink">
 <defs>
  <filter id="filter909" x="-.0055376" y="-.090122" width="1.0111" height="1.1802" color-interpolation-filters="sRGB">
   <feGaussianBlur stdDeviation="0.635983"/>
  </filter>
 </defs>
 <g id="front-mountain" class="mountain">
  <path d="m50.311 14.642c-3.2694 2.8278-9.3332 1.8578-14.343 1.6862-4.1521 0.44679-6.7958 4.8792-10.485 2.3606 0.37553 3.6914-5.5813 0.13115-6.9057 4.4674-2.4564 2.1456-9.9019 0.69149-11.92 0.78186-2.1623 1.751-3.5373 1.7763-5.4323 1.4004v8.292h276.69v-8.6816c-0.50441-0.0813-1.0081-0.18461-1.5106-0.31936-6.7296 0.38264-12.665-2.3055-19.447-1.8407-5.076-0.56319-9.0851-4.1487-14.538-3.021-4.0867-2.6786-9.3187-0.31692-13.971-2.2118-5.6048-0.59062-10.647 0.37978-15.504 0.2067-5.4644 0.43154-11.149 0.16972-15.523 2.6122-4.8022-2.1599-7.434 2.29-11.853 3.437-5.9193 1.3276-10.499 2.805-14.008 0.28319-1.8058 2.1725-5.4276 3.7168-10.051 3.2318-6.5512 1.9575-14.537 2.8448-20.774-0.29146-3.5852 3.0876-7.2634 0.73826-10.648 2.1063-2.7152-3.2422-10.948-2.3983-16.306-3.7171-5.8061 0.52404-8.3722-1.9308-13.788-1.9875-8.8011-4.6931-10.408 1.735-19.237 0.69866-1.7896-4.1521-11.815-2.8879-12.627-5.6167-2.891-4.215-6.2273 0.84753-8.1678-0.70177-3.3182-1.6071-5.5552-1.712-9.6541-3.1755z" fill="#872a9d" stroke-width=".36214"/>
 </g>
</svg>
