<svg width="279.14mm" height="33.101mm" version="1.1" viewBox="0 0 279.14 33.101" xmlns="http://www.w3.org/2000/svg" xmlns:xlink="http://www.w3.org/1999/xlink">
 <defs>
  <filter id="filter909" x="-.0055376" y="-.090122" width="1.0111" height="1.1802" color-interpolation-filters="sRGB">
   <feGaussianBlur stdDeviation="0.635983"/>
  </filter>
 </defs>
 <g id="middle-mountain" class="mountain">
  <path d="m67.854 5.8743c-0.23428 0.00299-0.47036 0.00823-0.70803 0.016007-5.942 1.5132-11.919 0.86-17.263 1.4862-5.667 0.66465-5.3276 4.8403-12.12 3.6959-7.6054-2.7659-6.4942 1.4082-15.93-1.604-6.6048-2.4841-12.253-4.5615-19.658-2.9853-0.32-0.0079983-0.6339-0.010702-0.94715-0.012401v26.63h276.69v-15.275c-3.1418 0.43687-5.6732 2.2322-8.2895 2.3632-2.7263-10.303-0.50558 3.4866-10.041 0.22583-11.559-0.40829-22.653-2.8005-33.015-5.5046-5.1531-0.28277-13.757-2.0679-18.872-1.2356-7.1902-0.92081-14.315 1.2643-20.526 1.1276-3.2702 1.4635-8.1959 3.8435-12.705 2.2794-6.3477-1.4136-11.931 3.5187-19.725 2.5456-6.249-1.4797-11.595-1.3196-16.623-0.67541-3.5191-1.7633-13.972-2.5626-19.859-3.8132-6.6449-1.3096-17.525-3.9051-20.691-1.5787-1.9329-1.7079-8.8275-2.8493-10.382-5.0715-6.3968-0.2017-12.072-2.6935-19.335-2.6148z" fill="#a244af" stroke-width=".27426"/>
 </g>
</svg>
