<svg width="279.14mm" height="33.101mm" version="1.1" viewBox="0 0 279.14 33.101" xmlns="http://www.w3.org/2000/svg" xmlns:xlink="http://www.w3.org/1999/xlink">
 <defs>
  <filter id="filter909" x="-.0055376" y="-.090122" width="1.0111" height="1.1802" color-interpolation-filters="sRGB">
   <feGaussianBlur stdDeviation="0.635983"/>
  </filter>
 </defs>
 <g id="back-mountain" class="mountain">
  <path d="m277.39 10.679c-0.29284 0.02167-0.60577 0.04321-0.91901 0.07979-3.8763 1.0794-7.9714 1.1392-11.942 0.6256-4.4721-0.57805-8.819-1.8415-13.092-3.2484-0.65206-0.99266-1.6868-1.6597-2.774-2.0915-0.65274-0.26306-1.3555-0.4615-2.0174-0.60658-2.5278-0.53569-5.1279-0.58516-7.7021-0.53963-1.5658 0.031066-3.1423 0.12168-4.7173 0.22027-2.1594 1.0111-4.5412 1.388-6.8847 1.7017-2.7343 0.37082-5.5126 0.59506-8.1613 1.4138-3.0858 1.1842-6.3894 1.5926-9.6444 2.0305-1.5073 0.20149-3.0224 0.40057-4.5032 0.67912-0.9587 0.17381-1.9078 0.40272-2.8463 0.65963-1.809 0.07166-3.562 0.60666-5.2207 1.3041-1.9062 0.79831-3.7944 1.6929-5.8302 2.1146-1.2703 0.27102-2.5755 0.37178-3.8727 0.31287-3.3448 1.2986-6.97 1.5446-10.496 1.9181-1.0354 0.1134-2.0743 0.22367-3.1009 0.39514-2.1422 0.90466-4.5181 1.2176-6.8254 0.95184-2.9838-0.32819-5.7846-1.4957-8.5064-2.6984-1.4815-0.6534-2.9614-1.3204-4.4942-1.8457-1.0483-0.52382-1.8876-1.385-2.5308-2.3525-0.72508-1.074-1.3837-2.2358-2.4237-3.0446-1.3703-1.0968-3.1093-1.5808-4.8092-1.8819-1.1113-1.038-1.8261-2.4694-3.1191-3.3169-0.73175-0.49631-1.6728-0.62416-2.5221-0.40028-0.75869 0.17457-1.4469 0.55648-2.1113 0.94686-3.1653 1.1691-6.2042 2.7349-9.5215 3.4514-0.32859 0.070864-0.65999 0.12742-0.98999 0.19129-0.19512-0.41835-0.4234-0.83741-0.80404-1.1164-0.87205-0.66924-1.9648-0.95635-3.0256-1.1672-1.047-0.20049-2.1117-0.29151-3.1757-0.33895-0.15025-0.00479-0.41486-0.014616-0.57483-0.017457-2.1754-0.046512-4.352 0.098037-6.51 0.36937-0.34215-0.54754-0.76635-1.0742-1.3633-1.3553-0.99466-0.48403-2.1432-0.39788-3.2074-0.25921-1.8718 0.25724-3.7092 0.81673-5.6162 0.79459-1.7314-0.057747-3.4117-0.51649-5.0979-0.87148-0.41637-0.085362-0.88914-0.18582-1.3308-0.25989-1.2774-0.21078-2.6065-0.3766-3.8828-0.073696-0.52147 0.11914-1.0056 0.36952-1.4264 0.69344-3.2396 1.184-6.639 1.8766-10.052 2.3263-2.0997 0.27088-4.2131 0.4355-6.3296 0.49345-0.20287 0.010567-0.48542 0.025179-0.71943 0.03533-2.3777 0.093806-4.7875-0.11809-7.061-0.84944-2.1245-0.66539-4.1304-1.6931-6.3178-2.1595-0.23021-0.065378-0.46231 0.058514-0.69517 0.07491-2.7439 0.46334-5.5363 0.13011-8.2723-0.2215-0.91401-0.1159-1.8483-0.2406-2.7466-0.32975-1.1083-0.11035-2.2233-0.17979-3.3373-0.13333-0.31215 0.014379-0.68933 0.041581-1.0251 0.08362-0.41381 0.043281-0.82263 0.13453-1.2296 0.20857-1.0863-0.10869-2.128-0.14085-3.2251-0.19329-3.5785-0.14469-7.16-0.43006-10.682-1.1016-0.211-0.023252-0.4243-0.11556-0.63268-0.097554-1.6632 0.5183-3.4255 0.69391-5.1597 0.54183-1.7701-0.14318-3.5409-0.4829-5.322-0.30309-0.6487 0.047185-1.2832 0.19451-1.9213 0.30861-2.5358 0.3659-5.0935-0.048099-7.5935-0.47681-1.546-0.25405-3.1026-0.5368-4.6759-0.4947-0.34881 0.012285-0.69739 0.040608-1.0423 0.094568" fill="none" filter="url(#filter909)" opacity=".69453" stroke="#000" stroke-width=".79375"/>
  <path d="m3.3088 1.2265c-0.71913-0.010329-1.4143 0.042376-2.0826 0.18759v31.687h276.69v-22.988c-0.49884 0.031-1.0023 0.06783-1.5156 0.11679-8.2428 2.3123-17.115-0.06937-24.641-2.5435-2.6588-3.8104-11.027-3.5191-17.672-3.0887-4.1953 2.037-10.116 1.6058-15.034 3.1182-5.201 2.0355-11.655 1.8343-16.932 3.3621-5.6396 0.2792-8.3732 4.052-14.949 3.7254-4.2902 1.6845-8.8792 1.5865-13.626 2.3218-7.4338 3.1424-13.905-1.6796-19.474-3.5414-3.6658-1.8954-2.3322-5.9729-9.7443-7.2962-1.6998-1.5884-3.2767-5.8509-8.195-2.775-3.2535 1.1964-6.5984 2.9357-10.034 3.5445-1.3729-2.9216-9.1004-2.8624-14.125-2.2407-2.3039-3.5519-7.4416-0.31147-11.21-0.84491-3.1603-0.2405-8.4921-2.5547-11.202-0.40256-4.3088 1.59-10.28 2.6115-16.168 2.7704-7.5314 0.45211-9.4-2.0054-14.216-3.0174-5.7851 1.2721-12-1.4608-17.178-0.27698-2.6631-0.28483-8.0366-0.10941-14.511-1.4211-5.1441 1.6301-7.4694-0.57678-12.341 0.56224-4.198 0.64871-8.3044-0.90829-11.843-0.95911z" fill="#cd83b3" stroke-width=".33906"/>
 </g>
</svg>
